<svg width="48" height="48" viewBox="0 0 48 48" fill="none" xmlns="http://www.w3.org/2000/svg">
<g id="gallery">
<rect id="Rectangle 486" x="1" y="1" width="46" height="46" rx="7" stroke="white" stroke-width="2"/>
<g id="Vector">
<path d="M24.0001 28.6664C25.9441 28.6664 27.5201 27.0746 27.5201 25.1109C27.5201 23.1472 25.9441 21.5553 24.0001 21.5553C22.056 21.5553 20.4801 23.1472 20.4801 25.1109C20.4801 27.0746 22.056 28.6664 24.0001 28.6664Z" fill="white"/>
<path d="M20.7 14L18.687 16.2222H15.2C13.99 16.2222 13 17.2222 13 18.4444V31.7778C13 33 13.99 34 15.2 34H32.8C34.01 34 35 33 35 31.7778V18.4444C35 17.2222 34.01 16.2222 32.8 16.2222H29.313L27.3 14H20.7ZM24 30.6667C20.964 30.6667 18.5 28.1778 18.5 25.1111C18.5 22.0444 20.964 19.5556 24 19.5556C27.036 19.5556 29.5 22.0444 29.5 25.1111C29.5 28.1778 27.036 30.6667 24 30.6667Z" fill="white"/>
</g>
</g>
</svg>
