<svg width="48" height="48" viewBox="0 0 48 48" fill="none" xmlns="http://www.w3.org/2000/svg">
<g id="geo">
<rect id="Card BG" width="48" height="48" rx="8" fill="#00D56A"/>
<g id="Group">
<path id="Vector" fill-rule="evenodd" clip-rule="evenodd" d="M24 36C24 36 33 27.471 33 21C33 18.6131 32.0518 16.3239 30.364 14.636C28.6761 12.9482 26.3869 12 24 12C21.6131 12 19.3239 12.9482 17.636 14.636C15.9482 16.3239 15 18.6131 15 21C15 27.471 24 36 24 36ZM24 25.5C25.1935 25.5 26.3381 25.0259 27.182 24.182C28.0259 23.3381 28.5 22.1935 28.5 21C28.5 19.8065 28.0259 18.6619 27.182 17.818C26.3381 16.9741 25.1935 16.5 24 16.5C22.8065 16.5 21.6619 16.9741 20.818 17.818C19.9741 18.6619 19.5 19.8065 19.5 21C19.5 22.1935 19.9741 23.3381 20.818 24.182C21.6619 25.0259 22.8065 25.5 24 25.5Z" fill="white"/>
</g>
</g>
</svg>
