<svg width="36" height="36" viewBox="0 0 36 36" fill="none" xmlns="http://www.w3.org/2000/svg">
<g id="lang_icon">
<path id="Vector" d="M17.992 10C13.576 10 10 13.584 10 18C10 22.416 13.576 26 17.992 26C22.416 26 26 22.416 26 18C26 13.584 22.416 10 17.992 10ZM23.536 14.8H21.176C20.9256 13.8092 20.5549 12.8527 20.072 11.952C21.5313 12.4544 22.7609 13.4654 23.536 14.8ZM18 11.632C18.664 12.592 19.184 13.656 19.528 14.8H16.472C16.816 13.656 17.336 12.592 18 11.632ZM11.808 19.6C11.68 19.088 11.6 18.552 11.6 18C11.6 17.448 11.68 16.912 11.808 16.4H14.512C14.448 16.928 14.4 17.456 14.4 18C14.4 18.544 14.448 19.072 14.512 19.6H11.808ZM12.464 21.2H14.824C15.08 22.2 15.448 23.16 15.928 24.048C14.4672 23.5483 13.2367 22.5367 12.464 21.2ZM14.824 14.8H12.464C13.2367 13.4633 14.4672 12.4517 15.928 11.952C15.4451 12.8527 15.0744 13.8092 14.824 14.8ZM18 24.368C17.336 23.408 16.816 22.344 16.472 21.2H19.528C19.184 22.344 18.664 23.408 18 24.368ZM19.872 19.6H16.128C16.056 19.072 16 18.544 16 18C16 17.456 16.056 16.92 16.128 16.4H19.872C19.944 16.92 20 17.456 20 18C20 18.544 19.944 19.072 19.872 19.6ZM20.072 24.048C20.552 23.16 20.92 22.2 21.176 21.2H23.536C22.7609 22.5346 21.5313 23.5456 20.072 24.048ZM21.488 19.6C21.552 19.072 21.6 18.544 21.6 18C21.6 17.456 21.552 16.928 21.488 16.4H24.192C24.32 16.912 24.4 17.448 24.4 18C24.4 18.552 24.32 19.088 24.192 19.6H21.488Z" fill="#01002C"/>
</g>
</svg>
