<svg width="36" height="36" viewBox="0 0 36 36" fill="none" xmlns="http://www.w3.org/2000/svg">
<g id="log_icon">
<path id="Vector" d="M16.64 14.1778C16.5659 14.2591 16.507 14.356 16.4669 14.4628C16.4267 14.5696 16.406 14.6842 16.406 14.8C16.406 14.9158 16.4267 15.0304 16.4669 15.1372C16.507 15.244 16.5659 15.3409 16.64 15.4222L18.16 17.1111H10.8C10.36 17.1111 10 17.5111 10 18C10 18.4889 10.36 18.8889 10.8 18.8889H18.16L16.64 20.5778C16.5659 20.6591 16.507 20.756 16.4669 20.8628C16.4267 20.9696 16.406 21.0842 16.406 21.2C16.406 21.3158 16.4267 21.4304 16.4669 21.5372C16.507 21.644 16.5659 21.7409 16.64 21.8222C16.952 22.1689 17.448 22.1689 17.76 21.8222L20.632 18.6311C20.7062 18.5489 20.765 18.4512 20.8051 18.3437C20.8453 18.2361 20.866 18.1209 20.866 18.0044C20.866 17.888 20.8453 17.7728 20.8051 17.6652C20.765 17.5577 20.7062 17.46 20.632 17.3778L17.76 14.1778C17.6868 14.0954 17.5996 14.0301 17.5035 13.9854C17.4073 13.9408 17.3042 13.9178 17.2 13.9178C17.0958 13.9178 16.9927 13.9408 16.8965 13.9854C16.8004 14.0301 16.7132 14.0954 16.64 14.1778ZM24.4 24.2222H18.8C18.36 24.2222 18 24.6222 18 25.1111C18 25.6 18.36 26 18.8 26H24.4C25.28 26 26 25.2 26 24.2222V11.7778C26 10.8 25.28 10 24.4 10H18.8C18.36 10 18 10.4 18 10.8889C18 11.3778 18.36 11.7778 18.8 11.7778H24.4V24.2222Z" fill="#01002C"/>
</g>
</svg>
