<svg width="36" height="36" viewBox="0 0 36 36" fill="none" xmlns="http://www.w3.org/2000/svg">
<g id="rent_icon">
<path id="Vector" d="M23.6 10H12.4C11.7635 10 11.153 10.2529 10.7029 10.7029C10.2529 11.153 10 11.7635 10 12.4V23.6C10 24.2365 10.2529 24.847 10.7029 25.2971C11.153 25.7471 11.7635 26 12.4 26H23.6C24.2365 26 24.847 25.7471 25.2971 25.2971C25.7471 24.847 26 24.2365 26 23.6V12.4C26 11.7635 25.7471 11.153 25.2971 10.7029C24.847 10.2529 24.2365 10 23.6 10ZM24.4 23.6C24.4 23.8122 24.3157 24.0157 24.1657 24.1657C24.0157 24.3157 23.8122 24.4 23.6 24.4H12.4C12.1878 24.4 11.9843 24.3157 11.8343 24.1657C11.6843 24.0157 11.6 23.8122 11.6 23.6V12.4C11.6 12.1878 11.6843 11.9843 11.8343 11.8343C11.9843 11.6843 12.1878 11.6 12.4 11.6H23.6C23.8122 11.6 24.0157 11.6843 24.1657 11.8343C24.3157 11.9843 24.4 12.1878 24.4 12.4V23.6ZM18 14.8C17.5757 14.8 17.1687 14.9686 16.8686 15.2686C16.5686 15.5687 16.4 15.9757 16.4 16.4C16.4017 16.6792 16.4764 16.9531 16.6168 17.1945C16.7571 17.4359 16.9582 17.6364 17.2 17.776V20.4C17.2 20.6122 17.2843 20.8157 17.4343 20.9657C17.5843 21.1157 17.7878 21.2 18 21.2C18.2122 21.2 18.4157 21.1157 18.5657 20.9657C18.7157 20.8157 18.8 20.6122 18.8 20.4V17.776C19.0418 17.6364 19.2429 17.4359 19.3832 17.1945C19.5236 16.9531 19.5983 16.6792 19.6 16.4C19.6 15.9757 19.4314 15.5687 19.1314 15.2686C18.8313 14.9686 18.4243 14.8 18 14.8Z" fill="#01002C"/>
</g>
</svg>
